<?xml version="1.0" standalone="no"?><!DOCTYPE svg PUBLIC "-//W3C//DTD SVG 1.1//EN" "http://www.w3.org/Graphics/SVG/1.1/DTD/svg11.dtd"><svg t="1567935199847" class="icon" viewBox="0 0 1024 1024" version="1.1" xmlns="http://www.w3.org/2000/svg" p-id="2232" xmlns:xlink="http://www.w3.org/1999/xlink" width="200" height="200"><defs><style type="text/css"></style></defs><path d="M1009.938827 885.313544L810.558298 685.933014c-8.999121-8.999121-21.19793-13.998633-33.99668-13.998633H743.964801c55.19461-70.593106 87.991407-159.384435 87.991407-255.975002C831.956208 186.181818 645.77439 0 415.996829 0S0.03745 186.181818 0.03745 415.959379s186.181818 415.959379 415.959379 415.959379c96.590567 0 185.381896-32.796797 255.975002-87.991407v32.596817c0 12.79875 4.999512 24.997559 13.998633 33.99668l199.38053 199.380529c18.798164 18.798164 49.195196 18.798164 67.793379 0l56.594473-56.594473c18.798164-18.798164 18.798164-49.195196 0.199981-67.99336zM415.996829 671.934381c-141.386193 0-255.975002-114.388829-255.975002-255.975002 0-141.386193 114.388829-255.975002 255.975002-255.975002 141.386193 0 255.975002 114.388829 255.975002 255.975002 0 141.386193-114.388829 255.975002-255.975002 255.975002z" fill="" p-id="2233"></path></svg>